<svg width="30" height="37" viewBox="0 0 30 37" fill="none" xmlns="http://www.w3.org/2000/svg">
<path d="M20.4199 5.87704C21.1164 5.0743 21.6474 4.14188 21.9826 3.13332C22.3177 2.12477 22.4503 1.05994 22.3727 0C20.2345 0.172603 18.2496 1.17827 16.8457 2.80034C16.1735 3.57776 15.664 4.48217 15.3476 5.46002C15.0311 6.43786 14.9141 7.46926 15.0034 8.49315C16.0464 8.50184 17.0775 8.2704 18.0167 7.81675C18.956 7.3631 19.7782 6.69941 20.4199 5.87704ZM25.0625 19.584C25.0749 18.1723 25.4468 16.787 26.143 15.5589C26.8393 14.3307 27.837 13.3003 29.042 12.5647C28.2815 11.469 27.2762 10.5655 26.1058 9.92589C24.9353 9.2863 23.632 8.92822 22.2991 8.88004C19.425 8.58527 16.7721 10.5566 15.2429 10.5566C13.7138 10.5566 11.5583 8.91689 9.16323 8.95373C7.59748 9.00531 6.07183 9.46181 4.73508 10.2787C3.39834 11.0956 2.29613 12.245 1.53597 13.6148C-1.70653 19.2524 0.706922 27.635 3.94943 32.1855C5.42329 34.4148 7.26562 36.9388 9.6975 36.8466C12.1294 36.7545 12.9216 35.3359 15.7403 35.3359C18.5591 35.3359 19.425 36.8466 21.82 36.7914C24.2151 36.7361 25.91 34.5069 27.4576 32.2777C28.5539 30.6592 29.4102 28.8907 30 27.027C28.5399 26.4043 27.2942 25.3676 26.4167 24.0448C25.5393 22.7221 25.0685 21.1713 25.0625 19.584Z" fill="#FAFAFA"/>
</svg>
