<svg width="21" height="21" viewBox="0 0 21 21" fill="none" xmlns="http://www.w3.org/2000/svg">
<path d="M16.0437 3.4849C15.8064 3.4849 15.5744 3.55528 15.3771 3.68714C15.1797 3.819 15.0259 4.00641 14.9351 4.22568C14.8443 4.44495 14.8205 4.68623 14.8668 4.91901C14.9131 5.15179 15.0274 5.36561 15.1952 5.53343C15.363 5.70125 15.5768 5.81554 15.8096 5.86184C16.0424 5.90815 16.2837 5.88438 16.503 5.79356C16.7222 5.70273 16.9096 5.54893 17.0415 5.35159C17.1734 5.15425 17.2437 4.92224 17.2437 4.6849C17.2437 4.36664 17.1173 4.06142 16.8923 3.83637C16.6672 3.61133 16.362 3.4849 16.0437 3.4849ZM20.6437 5.9049C20.6243 5.0752 20.4689 4.2543 20.1837 3.4749C19.9295 2.80803 19.5337 2.20418 19.0237 1.7049C18.5286 1.19233 17.9233 0.799079 17.2537 0.554902C16.4764 0.261063 15.6546 0.102112 14.8237 0.0849023C13.7637 0.0249023 13.4237 0.0249023 10.7037 0.0249023C7.98374 0.0249023 7.64374 0.0249023 6.58374 0.0849023C5.75289 0.102112 4.93108 0.261063 4.15374 0.554902C3.48541 0.801551 2.88067 1.19446 2.38374 1.7049C1.87116 2.20008 1.47791 2.80534 1.23374 3.4749C0.939896 4.25225 0.780945 5.07405 0.763735 5.9049C0.703735 6.9649 0.703735 7.3049 0.703735 10.0249C0.703735 12.7449 0.703735 13.0849 0.763735 14.1449C0.780945 14.9758 0.939896 15.7976 1.23374 16.5749C1.47791 17.2445 1.87116 17.8497 2.38374 18.3449C2.88067 18.8553 3.48541 19.2483 4.15374 19.4949C4.93108 19.7887 5.75289 19.9477 6.58374 19.9649C7.64374 20.0249 7.98374 20.0249 10.7037 20.0249C13.4237 20.0249 13.7637 20.0249 14.8237 19.9649C15.6546 19.9477 16.4764 19.7887 17.2537 19.4949C17.9233 19.2507 18.5286 18.8575 19.0237 18.3449C19.536 17.8475 19.9321 17.2431 20.1837 16.5749C20.4689 15.7955 20.6243 14.9746 20.6437 14.1449C20.6437 13.0849 20.7037 12.7449 20.7037 10.0249C20.7037 7.3049 20.7037 6.9649 20.6437 5.9049ZM18.8437 14.0249C18.8365 14.6597 18.7215 15.2886 18.5037 15.8849C18.3441 16.3201 18.0876 16.7133 17.7537 17.0349C17.4294 17.3654 17.037 17.6213 16.6037 17.7849C16.0074 18.0027 15.3785 18.1176 14.7437 18.1249C13.7437 18.1749 13.3737 18.1849 10.7437 18.1849C8.11374 18.1849 7.74374 18.1849 6.74374 18.1249C6.08463 18.1372 5.42833 18.0358 4.80374 17.8249C4.38952 17.653 4.01509 17.3977 3.70374 17.0749C3.37182 16.7537 3.11858 16.3601 2.96374 15.9249C2.71959 15.3201 2.58418 14.6768 2.56374 14.0249C2.56374 13.0249 2.50374 12.6549 2.50374 10.0249C2.50374 7.3949 2.50374 7.0249 2.56374 6.0249C2.56822 5.37596 2.68669 4.73285 2.91374 4.1249C3.08978 3.70281 3.36 3.32656 3.70374 3.0249C4.00755 2.68107 4.38302 2.408 4.80374 2.2249C5.41329 2.00495 6.05573 1.88998 6.70374 1.8849C7.70374 1.8849 8.07374 1.8249 10.7037 1.8249C13.3337 1.8249 13.7037 1.8249 14.7037 1.8849C15.3385 1.89218 15.9674 2.00715 16.5637 2.2249C17.0182 2.39355 17.426 2.66775 17.7537 3.0249C18.0814 3.33208 18.3375 3.70763 18.5037 4.1249C18.726 4.73384 18.841 5.37668 18.8437 6.0249C18.8937 7.0249 18.9037 7.3949 18.9037 10.0249C18.9037 12.6549 18.8937 13.0249 18.8437 14.0249ZM10.7037 4.8949C9.68955 4.89688 8.6987 5.19943 7.85639 5.76432C7.01408 6.32921 6.35811 7.1311 5.97137 8.06866C5.58462 9.00621 5.48446 10.0374 5.68353 11.0318C5.8826 12.0263 6.37197 12.9394 7.08981 13.6559C7.80765 14.3723 8.72175 14.8599 9.71659 15.0571C10.7114 15.2542 11.7424 15.152 12.6792 14.7634C13.616 14.3749 14.4166 13.7173 14.9799 12.8739C15.5431 12.0305 15.8437 11.0391 15.8437 10.0249C15.8451 9.35001 15.7129 8.68151 15.455 8.05786C15.197 7.43421 14.8183 6.86771 14.3406 6.39095C13.8629 5.91419 13.2957 5.53658 12.6715 5.27983C12.0474 5.02308 11.3786 4.89226 10.7037 4.8949ZM10.7037 13.3549C10.0451 13.3549 9.4013 13.1596 8.85369 12.7937C8.30607 12.4278 7.87926 11.9077 7.62722 11.2992C7.37518 10.6908 7.30923 10.0212 7.43772 9.37525C7.56621 8.72929 7.88336 8.13595 8.34907 7.67024C8.81478 7.20453 9.40813 6.88738 10.0541 6.75889C10.7 6.6304 11.3696 6.69634 11.9781 6.94838C12.5865 7.20042 13.1066 7.62724 13.4725 8.17485C13.8384 8.72247 14.0337 9.36629 14.0337 10.0249C14.0337 10.4622 13.9476 10.8952 13.7803 11.2992C13.6129 11.7033 13.3676 12.0703 13.0584 12.3796C12.7492 12.6888 12.3821 12.9341 11.9781 13.1014C11.5741 13.2688 11.141 13.3549 10.7037 13.3549Z" fill="#FAFAFA"/>
</svg>
