<svg width="50" height="50" viewBox="0 0 50 50" fill="none" xmlns="http://www.w3.org/2000/svg">
<path d="M24.0172 25.0576C24.0172 21.9249 23.9636 18.7907 24.0419 15.6594C24.0723 14.4538 23.8057 14.0423 22.4886 14.0061C16.7954 13.8438 12.5006 15.8593 10.3068 21.3786C10.1011 21.8944 9.83154 22.1031 9.25049 22.0944C6.47421 22.064 3.69648 22.0582 0.920192 22.0944C0.0826699 22.106 -0.0723728 21.8133 0.0261592 21.0323C1.31867 10.898 10.585 1.63452 20.8425 0.259415C34.6457 -1.59096 46.4898 6.60748 49.4472 20.06C52.8581 35.5643 40.007 50.6991 24.0506 49.9645C11.879 49.4037 2.38223 41.1574 0.102956 29.2438C-0.125986 28.044 0.159467 27.7716 1.30418 27.7948C3.77714 27.8585 6.25203 27.8585 8.72885 27.7948C9.65331 27.7687 10.0938 28.0643 10.459 28.9105C12.6861 34.0834 17.5011 36.6423 23.2102 35.8787C24.2027 35.7469 24.0057 35.1904 24.0071 34.6384C24.0259 31.4448 24.0201 28.2512 24.0172 25.0576ZM32.5069 27.0297C28.4092 26.934 28.4092 26.934 28.7294 30.6522C28.7395 30.7724 28.7294 30.8942 28.7395 31.013C28.7613 31.4216 28.9279 31.7259 29.3829 31.7027C31.5999 31.5911 33.8342 31.9766 36.0396 31.4622C37.2886 31.1724 37.9132 30.387 37.8581 29.1438C37.8001 27.86 36.9394 27.1862 35.7556 27.0558C34.6906 26.9398 33.5908 27.0297 32.5069 27.0297ZM31.7361 22.9565C32.5475 22.8957 33.4502 22.8537 34.3443 22.7522C35.6802 22.6073 36.6453 22.0379 36.6105 20.5005C36.5757 18.9631 35.4977 18.4444 34.2124 18.3574C32.7127 18.2531 31.2014 18.314 29.6959 18.3096C29.28 18.3096 28.7584 18.2386 28.7569 18.853C28.7569 20.1093 28.4874 21.5047 28.9496 22.5769C29.3018 23.3956 30.7174 22.7508 31.7361 22.9594V22.9565Z" fill="#A1E577"/>
</svg>
