<svg width="21" height="21" viewBox="0 0 21 21" fill="none" xmlns="http://www.w3.org/2000/svg">
<path d="M15.3037 12.025C15.1037 11.925 13.8037 11.325 13.6037 11.225C13.4037 11.125 13.2037 11.125 13.0037 11.325C12.8037 11.525 12.4037 12.125 12.2037 12.325C12.1037 12.525 11.9037 12.525 11.7037 12.425C11.0037 12.125 10.3037 11.725 9.70374 11.225C9.20374 10.725 8.70374 10.125 8.30374 9.525C8.20374 9.325 8.30374 9.125 8.40374 9.025C8.50374 8.925 8.60374 8.725 8.80374 8.625C8.90374 8.525 9.00374 8.325 9.00374 8.225C9.10374 8.125 9.10374 7.925 9.00374 7.825C8.90374 7.725 8.40374 6.525 8.20374 6.025C8.10374 5.325 7.90374 5.325 7.70374 5.325H7.20374C7.00374 5.325 6.70374 5.525 6.60374 5.625C6.00374 6.225 5.70374 6.925 5.70374 7.725C5.80374 8.625 6.10374 9.525 6.70374 10.325C7.80374 11.925 9.20374 13.225 10.9037 14.025C11.4037 14.225 11.8037 14.425 12.3037 14.525C12.8037 14.725 13.3037 14.725 13.9037 14.625C14.6037 14.525 15.2037 14.025 15.6037 13.425C15.8037 13.025 15.8037 12.625 15.7037 12.225L15.3037 12.025ZM17.8037 2.925C13.9037 -0.975 7.60374 -0.975 3.70374 2.925C0.503735 6.125 -0.0962646 11.025 2.10374 14.925L0.703735 20.025L6.00374 18.625C7.50374 19.425 9.10373 19.825 10.7037 19.825C16.2037 19.825 20.6037 15.425 20.6037 9.925C20.7037 7.325 19.6037 4.825 17.8037 2.925ZM15.1037 16.925C13.8037 17.725 12.3037 18.225 10.7037 18.225C9.20374 18.225 7.80374 17.825 6.50374 17.125L6.20374 16.925L3.10374 17.725L3.90374 14.725L3.70374 14.425C1.30374 10.425 2.50374 5.425 6.40374 2.925C10.3037 0.425 15.3037 1.725 17.7037 5.525C20.1037 9.425 19.0037 14.525 15.1037 16.925Z" fill="#FAFAFA"/>
</svg>
