<svg width="31" height="33" viewBox="0 0 31 33" fill="none" xmlns="http://www.w3.org/2000/svg">
<path d="M17.3271 15.7182L22.7303 10.315L5.27816 0.506215C4.1215 -0.118708 3.03794 -0.206417 2.08776 0.476979L17.3271 15.7182ZM23.6513 22.0442L29.2683 18.8848C30.3647 18.2709 30.9658 17.4011 30.9658 16.4363C30.9658 15.4733 30.3647 14.6017 29.2701 13.9878L24.1849 11.1317L18.46 16.8547L23.6513 22.0442ZM1.14855 1.8054C1.0316 2.16537 0.96582 2.56737 0.96582 3.00774V29.8776C0.96582 30.5738 1.11931 31.1732 1.39705 31.6501L16.1924 16.8529L1.14855 1.8054ZM17.3271 17.9858L2.61401 32.7008C2.89541 32.8086 3.19874 32.8652 3.51851 32.8652C4.08861 32.8652 4.68247 32.6971 5.2873 32.3609L22.1986 22.8646L17.3271 17.9858Z" fill="#FAFAFA"/>
</svg>
