<svg width="21" height="18" viewBox="0 0 21 18" fill="none" xmlns="http://www.w3.org/2000/svg">
<path d="M20.61 2.69425C19.8584 3.02035 19.0634 3.23592 18.25 3.33425C19.1082 2.82157 19.7513 2.01504 20.06 1.06425C19.2536 1.54432 18.3708 1.88255 17.45 2.06425C16.8346 1.39682 16.015 0.952549 15.1198 0.801104C14.2247 0.649659 13.3046 0.799611 12.5038 1.22744C11.7031 1.65527 11.067 2.33678 10.6953 3.16509C10.3236 3.99339 10.2373 4.92164 10.45 5.80425C8.81945 5.72178 7.22446 5.29721 5.76868 4.55811C4.31289 3.81902 3.02887 2.78195 2.00002 1.51425C1.63916 2.14442 1.44954 2.85807 1.45002 3.58425C1.44874 4.25863 1.61424 4.92287 1.93178 5.51782C2.24932 6.11276 2.70904 6.61996 3.27002 6.99425C2.618 6.97651 1.97991 6.80155 1.41002 6.48425V6.53425C1.41491 7.47914 1.74602 8.39334 2.34734 9.12222C2.94866 9.85109 3.78328 10.3499 4.71002 10.5343C4.35328 10.6428 3.9829 10.7001 3.61002 10.7043C3.35191 10.7012 3.09445 10.6778 2.84002 10.6343C3.10393 11.4471 3.61465 12.1574 4.3011 12.6664C4.98755 13.1754 5.8156 13.4578 6.67002 13.4743C5.22723 14.6095 3.44591 15.2291 1.61002 15.2343C1.27576 15.2353 0.941759 15.2153 0.610023 15.1743C2.48445 16.3845 4.66884 17.027 6.90002 17.0243C8.43972 17.0402 9.96716 16.7493 11.3931 16.1683C12.8191 15.5874 14.115 14.7281 15.2052 13.6407C16.2954 12.5534 17.158 11.2596 17.7426 9.83516C18.3272 8.41067 18.6221 6.88398 18.61 5.34425C18.61 5.17425 18.61 4.99425 18.61 4.81425C19.3947 4.22906 20.0715 3.51168 20.61 2.69425Z" fill="#FAFAFA"/>
</svg>
